# xmcd
#
# Track frame offsets: 
#        150
#        21811
#        37808
#        64281
#        78169
#        98343
#        117365
#        141913
#        160499
#        183963
#        210006
#        228303
#        247234
#        265877
#        280267
#        299629
#        325790
#
# Disc length: 4612 seconds
#
# Revision: 1
# Processed by: cddbd v1.5.2PL0 Copyright (c) Steve Scherf et al.
# Submitted via: ExactAudioCopyFreeDBPlugin 1.0
#
DISCID=ec120211
DTITLE=Various Artist - Nuclear Blast Festivals 2000
DYEAR=2001
DGENRE=Metal
TTITLE0=Raise Hell - Dance With The Devil
TTITLE1=Raise Hell - Babes
TTITLE2=Raise Hell - Soulcollector
TTITLE3=Kataklysm - 1999.6661.2000
TTITLE4=Kataklysm - Laments Of Fear
TTITLE5=Kataklysm - The Awakener
TTITLE6=Hypocrisy - Fractured Millenium
TTITLE7=Hypocrisy - Legions Descend
TTITLE8=Hypocrisy - Fire In The Sky
TTITLE9=Hypocrisy - Elastic Inverted Visions
TTITLE10=Destruction - The Butcher Strikes Back
TTITLE11=Destruction - Tears Of Blood
TTITLE12=Destruction - Mad Butcher
TTITLE13=Destruction - Total Desaster
TTITLE14=Crematory - Endless
TTITLE15=Crematory - I Never Die
TTITLE16=Crematory - Away
EXTD=
EXTT0=
EXTT1=
EXTT2=
EXTT3=
EXTT4=
EXTT5=
EXTT6=
EXTT7=
EXTT8=
EXTT9=
EXTT10=
EXTT11=
EXTT12=
EXTT13=
EXTT14=
EXTT15=
EXTT16=
PLAYORDER=
